<svg xmlns="http://www.w3.org/2000/svg" width="1200" height="340" viewBox="0 0 1200 340" role="img" aria-labelledby="title desc">
<title id="title">MABe: from pose to behavior</title>
<desc id="desc">Five-fold LightGBM and multi-scale features turn mouse keypoint trajectories into timed behavior events. The right panel shows real model output from the first 120 seconds of test video 438887472 for three mouse pairs.</desc>
<rect width="1200" height="340" rx="14" fill="#172b35"/>
<g font-family="-apple-system, BlinkMacSystemFont, Segoe UI, sans-serif">
<text x="52" y="66" font-size="20" letter-spacing="2" fill="#8bd6d5">POSE-BASED BEHAVIOR RECOGNITION</text>
<text x="48" y="154" font-size="86" font-weight="700" fill="#f7f9fa">MABe</text>
<text x="52" y="208" font-size="32" fill="#f7f9fa">From pose to behavior.</text>
<text x="52" y="266" font-size="23" fill="#adc2cc">Multi-scale features · Five-fold LightGBM</text>
<line x1="620" y1="56" x2="620" y2="286" stroke="#38505c"/>
<text x="668" y="68" font-size="23" font-weight="600" fill="#f7f9fa">REAL PREDICTION EVENTS</text>
<text x="668" y="132" font-size="18" fill="#adc2cc">M2 → self</text><rect x="830" y="115" width="286" height="20" rx="3" fill="#29434f"/><rect x="866.703" y="115" width="0.079" height="20" fill="#43c5c7"/><rect x="867.180" y="115" width="4.131" height="20" fill="#43c5c7"/><rect x="892.126" y="115" width="8.818" height="20" fill="#43c5c7"/><rect x="901.023" y="115" width="0.079" height="20" fill="#43c5c7"/><rect x="952.583" y="115" width="0.079" height="20" fill="#43c5c7"/><rect x="953.377" y="115" width="0.079" height="20" fill="#43c5c7"/><rect x="953.536" y="115" width="0.079" height="20" fill="#43c5c7"/><rect x="955.840" y="115" width="1.430" height="20" fill="#43c5c7"/><rect x="998.581" y="115" width="0.079" height="20" fill="#43c5c7"/><rect x="999.217" y="115" width="0.079" height="20" fill="#43c5c7"/><rect x="999.614" y="115" width="0.159" height="20" fill="#43c5c7"/><rect x="999.852" y="115" width="24.151" height="20" fill="#43c5c7"/><rect x="1024.401" y="115" width="8.183" height="20" fill="#43c5c7"/><rect x="1032.663" y="115" width="0.079" height="20" fill="#43c5c7"/><rect x="1033.537" y="115" width="0.159" height="20" fill="#43c5c7"/><rect x="1065.314" y="115" width="0.238" height="20" fill="#43c5c7"/><rect x="1065.632" y="115" width="1.748" height="20" fill="#43c5c7"/><rect x="1075.404" y="115" width="0.318" height="20" fill="#43c5c7"/><text x="668" y="186" font-size="18" fill="#adc2cc">M4 → self</text><rect x="830" y="169" width="286" height="20" rx="3" fill="#29434f"/><rect x="842.314" y="169" width="0.079" height="20" fill="#43c5c7"/><rect x="842.552" y="169" width="2.145" height="20" fill="#43c5c7"/><rect x="851.927" y="169" width="1.192" height="20" fill="#43c5c7"/><rect x="855.184" y="169" width="0.159" height="20" fill="#43c5c7"/><rect x="855.661" y="169" width="5.561" height="20" fill="#43c5c7"/><rect x="861.301" y="169" width="1.668" height="20" fill="#43c5c7"/><rect x="906.028" y="169" width="1.430" height="20" fill="#43c5c7"/><rect x="930.179" y="169" width="0.079" height="20" fill="#43c5c7"/><rect x="930.418" y="169" width="0.079" height="20" fill="#43c5c7"/><rect x="932.086" y="169" width="0.636" height="20" fill="#43c5c7"/><rect x="932.960" y="169" width="0.079" height="20" fill="#43c5c7"/><rect x="933.119" y="169" width="0.238" height="20" fill="#43c5c7"/><rect x="933.596" y="169" width="0.079" height="20" fill="#43c5c7"/><rect x="934.231" y="169" width="0.079" height="20" fill="#43c5c7"/><rect x="942.652" y="169" width="0.079" height="20" fill="#43c5c7"/><rect x="943.844" y="169" width="0.079" height="20" fill="#43c5c7"/><rect x="949.961" y="169" width="0.079" height="20" fill="#43c5c7"/><rect x="950.438" y="169" width="0.159" height="20" fill="#43c5c7"/><rect x="950.994" y="169" width="0.079" height="20" fill="#43c5c7"/><rect x="956.237" y="169" width="0.079" height="20" fill="#43c5c7"/><rect x="960.607" y="169" width="0.953" height="20" fill="#43c5c7"/><rect x="961.639" y="169" width="0.079" height="20" fill="#43c5c7"/><rect x="962.990" y="169" width="0.079" height="20" fill="#43c5c7"/><rect x="963.149" y="169" width="0.636" height="20" fill="#43c5c7"/><rect x="965.453" y="169" width="0.079" height="20" fill="#43c5c7"/><rect x="965.612" y="169" width="0.159" height="20" fill="#43c5c7"/><rect x="976.893" y="169" width="7.071" height="20" fill="#43c5c7"/><rect x="984.043" y="169" width="0.079" height="20" fill="#43c5c7"/><rect x="1025.910" y="169" width="0.556" height="20" fill="#43c5c7"/><rect x="1026.546" y="169" width="0.715" height="20" fill="#43c5c7"/><rect x="1027.419" y="169" width="0.079" height="20" fill="#43c5c7"/><rect x="1065.156" y="169" width="0.159" height="20" fill="#43c5c7"/><rect x="1067.221" y="169" width="3.972" height="20" fill="#43c5c7"/><rect x="1073.656" y="169" width="0.079" height="20" fill="#43c5c7"/><rect x="1074.133" y="169" width="0.079" height="20" fill="#43c5c7"/><rect x="1096.218" y="169" width="3.337" height="20" fill="#43c5c7"/><rect x="1100.667" y="169" width="3.178" height="20" fill="#43c5c7"/><rect x="1107.897" y="169" width="2.860" height="20" fill="#43c5c7"/><rect x="1111.074" y="169" width="0.079" height="20" fill="#43c5c7"/><text x="668" y="240" font-size="18" fill="#adc2cc">M4 → M1</text><rect x="830" y="223" width="286" height="20" rx="3" fill="#29434f"/><rect x="863.287" y="223" width="0.318" height="20" fill="#b997da"/><rect x="863.764" y="223" width="0.079" height="20" fill="#b997da"/><rect x="864.002" y="223" width="0.159" height="20" fill="#b997da"/><rect x="866.942" y="223" width="5.958" height="20" fill="#b997da"/><rect x="900.229" y="223" width="2.224" height="20" fill="#88bee5"/><rect x="923.744" y="223" width="1.827" height="20" fill="#88bee5"/><rect x="930.736" y="223" width="0.318" height="20" fill="#f48877"/><rect x="931.292" y="223" width="0.159" height="20" fill="#f48877"/><rect x="931.530" y="223" width="0.159" height="20" fill="#f48877"/><rect x="931.848" y="223" width="3.496" height="20" fill="#f48877"/><rect x="935.661" y="223" width="0.079" height="20" fill="#f48877"/><rect x="935.820" y="223" width="0.238" height="20" fill="#f48877"/><rect x="938.521" y="223" width="2.622" height="20" fill="#efbe6e"/><rect x="941.143" y="223" width="10.804" height="20" fill="#f48877"/><rect x="997.389" y="223" width="0.079" height="20" fill="#88bee5"/><rect x="997.548" y="223" width="0.079" height="20" fill="#88bee5"/><rect x="1007.638" y="223" width="0.079" height="20" fill="#efbe6e"/><rect x="1007.876" y="223" width="2.145" height="20" fill="#efbe6e"/><rect x="1017.966" y="223" width="2.860" height="20" fill="#f48877"/><rect x="1030.915" y="223" width="0.238" height="20" fill="#efbe6e"/><rect x="1031.233" y="223" width="0.238" height="20" fill="#efbe6e"/><rect x="1032.266" y="223" width="0.079" height="20" fill="#f48877"/><rect x="1032.424" y="223" width="0.159" height="20" fill="#f48877"/><rect x="1032.742" y="223" width="0.079" height="20" fill="#f48877"/><rect x="1032.901" y="223" width="0.318" height="20" fill="#f48877"/><rect x="1035.284" y="223" width="1.112" height="20" fill="#b997da"/><rect x="1077.311" y="223" width="0.079" height="20" fill="#88bee5"/><rect x="1077.469" y="223" width="0.159" height="20" fill="#88bee5"/>
<text x="830" y="287" font-size="18" fill="#adc2cc">0 s</text>
<text x="1116" y="287" text-anchor="end" font-size="18" fill="#adc2cc">120 s</text>
<text x="668" y="318" font-size="16" fill="#adc2cc">Video 438887472 · first 120 seconds · selected pairs</text>
</g></svg>
